<svg xmlns="http://www.w3.org/2000/svg" viewBox="0 0 1200 220" width="1200" height="220">
  <defs>
    <linearGradient id="grad" x1="0" y1="0" x2="1" y2="1">
      <stop offset="0" stop-color="#36BCF7">
        <animate attributeName="stop-color" values="#36BCF7;#7B2BF9;#F72585;#36BCF7" dur="10s" repeatCount="indefinite"/>
      </stop>
      <stop offset="0.5" stop-color="#7B2BF9">
        <animate attributeName="stop-color" values="#7B2BF9;#F72585;#36BCF7;#7B2BF9" dur="10s" repeatCount="indefinite"/>
      </stop>
      <stop offset="1" stop-color="#F72585">
        <animate attributeName="stop-color" values="#F72585;#36BCF7;#7B2BF9;#F72585" dur="10s" repeatCount="indefinite"/>
      </stop>
    </linearGradient>
    <clipPath id="clip"><rect width="1200" height="220"/></clipPath>
  </defs>
  <g clip-path="url(#clip)">
    <path fill="url(#grad)" opacity="0.45" d="M0,0 H2400 V175 Q2250,205 2100,175 Q1950,145 1800,175 Q1650,205 1500,175 Q1350,145 1200,175 Q1050,205 900,175 Q750,145 600,175 Q450,205 300,175 Q150,145 0,175 Z">
      <animateTransform attributeName="transform" type="translate" from="0 0" to="-1200 0" dur="7s" repeatCount="indefinite"/>
    </path>
    <path fill="url(#grad)" d="M0,0 H2400 V160 Q2250,190 2100,160 Q1950,130 1800,160 Q1650,190 1500,160 Q1350,130 1200,160 Q1050,190 900,160 Q750,130 600,160 Q450,190 300,160 Q150,130 0,160 Z">
      <animateTransform attributeName="transform" type="translate" from="0 0" to="-1200 0" dur="11s" repeatCount="indefinite"/>
    </path>
  </g>
  <text x="600" y="95" text-anchor="middle" fill="#ffffff" font-family="-apple-system,BlinkMacSystemFont,'Segoe UI',Helvetica,Arial,sans-serif" font-size="50" font-weight="700">Hwang Hong Seok</text>
  <text x="600" y="132" text-anchor="middle" fill="#ffffff" opacity="0.9" font-family="-apple-system,BlinkMacSystemFont,'Segoe UI',Helvetica,Arial,sans-serif" font-size="19" font-weight="500">Full-Stack | ERP | Game &amp; VR | AI Automation</text>
</svg>
