<svg xmlns="http://www.w3.org/2000/svg" width="320" height="165" viewBox="0 0 320 165">
  <rect width="320" height="165" rx="4.5" fill="#1a1b27"/>
  <text x="25" y="33" font-family="'Segoe UI',Ubuntu,'Helvetica Neue',sans-serif" font-size="18" font-weight="600" fill="#70a5fd">Most Used Languages</text>
  <g>
    <mask id="bar"><rect x="25" y="50" width="270" height="8" rx="5" fill="#fff"/></mask>
    <g mask="url(#bar)">
      <rect x="25"    y="50" width="121.5" height="8" fill="#3572A5"/>
      <rect x="146.5" y="50" width="40.5"  height="8" fill="#f1e05a"/>
      <rect x="187"   y="50" width="32.4"  height="8" fill="#00B4AB"/>
      <rect x="219.4" y="50" width="27"    height="8" fill="#178600"/>
      <rect x="246.4" y="50" width="21.6"  height="8" fill="#f34b7d"/>
      <rect x="268"   y="50" width="27"    height="8" fill="#ededed"/>
    </g>
  </g>
  <g font-family="'Segoe UI',Ubuntu,'Helvetica Neue',sans-serif" font-size="12" fill="#38bdae">
    <g transform="translate(25, 77)">
      <circle cx="5" cy="-4" r="5" fill="#3572A5"/><text x="16" y="0">Python 45%</text>
    </g>
    <g transform="translate(165, 77)">
      <circle cx="5" cy="-4" r="5" fill="#f1e05a"/><text x="16" y="0">JavaScript 15%</text>
    </g>
    <g transform="translate(25, 102)">
      <circle cx="5" cy="-4" r="5" fill="#00B4AB"/><text x="16" y="0">Dart 12%</text>
    </g>
    <g transform="translate(165, 102)">
      <circle cx="5" cy="-4" r="5" fill="#178600"/><text x="16" y="0">C# 10%</text>
    </g>
    <g transform="translate(25, 127)">
      <circle cx="5" cy="-4" r="5" fill="#f34b7d"/><text x="16" y="0">C++ 8%</text>
    </g>
    <g transform="translate(165, 127)">
      <circle cx="5" cy="-4" r="5" fill="#ededed"/><text x="16" y="0">Others 10%</text>
    </g>
  </g>
  <text x="25" y="152" font-family="'Segoe UI',Ubuntu,'Helvetica Neue',sans-serif" font-size="10" fill="#565f89">* private &amp; commercial projects included</text>
</svg>
